M48
; DRILL file {KiCad 5.1.0-060a0da~80~ubuntu16.04.1} date Di 09 Apr 2019 13:09:08 CEST
; FORMAT={-:-/ absolute / inch / decimal}
; #@! TF.CreationDate,2019-04-09T13:09:08+02:00
; #@! TF.GenerationSoftware,Kicad,Pcbnew,5.1.0-060a0da~80~ubuntu16.04.1
; #@! TF.FileFunction,Plated,1,2,PTH
FMAT,2
INCH
T1C0.0118
T2C0.0394
%
G90
G05
T1
X3.175Y-3.25
X3.175Y-3.15
X3.225Y-3.15
X3.275Y-2.6
X3.275Y-2.775
X3.275Y-2.9
X3.275Y-3.775
X3.3Y-3.925
X3.325Y-2.75
X3.325Y-3.875
X3.35Y-2.725
X3.375Y-2.625
X3.375Y-2.925
X3.375Y-3.275
X3.375Y-3.825
X3.425Y-3.3
X3.425Y-3.975
X3.4974Y-3.4526
X3.5Y-2.4
X3.5Y-2.55
X3.55Y-2.625
X3.55Y-3.025
X3.55Y-3.675
X3.55Y-4.075
X3.6Y-2.675
X3.6Y-3.725
X3.6Y-4.0
X3.6Y-2.95
X3.65Y-3.4
X3.65Y-3.525
X3.7Y-2.475
X3.7Y-3.2
X4.375Y-2.55
X4.3776Y-3.4526
X4.45Y-2.625
X4.45Y-3.025
X4.45Y-3.675
X4.45Y-4.075
X4.5Y-2.675
X4.5Y-3.725
X4.5Y-4.0
X4.5292Y-2.9958
X4.55Y-3.4
X4.55Y-3.525
X4.625Y-2.55
X4.625Y-3.225
X5.275Y-2.55
X5.2776Y-3.4526
X5.35Y-2.625
X5.35Y-3.025
X5.35Y-3.675
X5.35Y-4.075
X5.4Y-2.675
X5.4Y-3.725
X5.4Y-4.0
X5.4281Y-2.9969
X5.45Y-3.4
X5.45Y-3.525
X5.525Y-2.55
X5.525Y-3.225
X6.1724Y-3.4526
X6.175Y-2.55
X6.2458Y-3.0292
X6.25Y-3.3
X6.25Y-2.625
X6.25Y-3.25
X6.25Y-3.675
X6.25Y-4.075
X6.3Y-2.675
X6.3Y-2.775
X6.3Y-3.35
X6.3Y-3.825
X6.35Y-3.4
X6.35Y-3.525
X6.425Y-2.55
X6.425Y-3.275
X7.05Y-3.625
X7.075Y-3.825
X7.175Y-3.775
T2
X7.4Y-3.1
X7.4Y-3.2
X7.4Y-3.3
X7.4Y-3.4
X7.4Y-3.5
X7.4Y-3.6
X7.4Y-3.7
X5.95Y-2.5
X5.95Y-2.6
X5.95Y-2.7
X5.95Y-2.8
X5.95Y-2.9
X5.95Y-3.0
X5.95Y-3.1
X5.95Y-3.2
X6.85Y-3.55
X6.85Y-3.65
X6.85Y-3.75
X6.85Y-3.85
X6.85Y-3.95
X6.85Y-4.05
X6.85Y-4.15
X6.85Y-4.25
X3.1Y-3.1
X3.1Y-3.2
X3.1Y-3.3
X3.1Y-3.4
X3.1Y-3.5
X3.1Y-3.6
X3.1Y-3.7
X5.95Y-3.55
X5.95Y-3.65
X5.95Y-3.75
X5.95Y-3.85
X5.95Y-3.95
X5.95Y-4.05
X5.95Y-4.15
X5.95Y-4.25
X3.1Y-4.15
X3.1Y-4.25
X4.15Y-3.55
X4.15Y-3.65
X4.15Y-3.75
X4.15Y-3.85
X4.15Y-3.95
X4.15Y-4.05
X4.15Y-4.15
X4.15Y-4.25
X5.05Y-3.55
X5.05Y-3.65
X5.05Y-3.75
X5.05Y-3.85
X5.05Y-3.95
X5.05Y-4.05
X5.05Y-4.15
X5.05Y-4.25
X4.15Y-2.5
X4.15Y-2.6
X4.15Y-2.7
X4.15Y-2.8
X4.15Y-2.9
X4.15Y-3.0
X4.15Y-3.1
X4.15Y-3.2
X6.85Y-2.5
X6.85Y-2.6
X6.85Y-2.7
X6.85Y-2.8
X6.85Y-2.9
X6.85Y-3.0
X6.85Y-3.1
X6.85Y-3.2
X5.05Y-2.5
X5.05Y-2.6
X5.05Y-2.7
X5.05Y-2.8
X5.05Y-2.9
X5.05Y-3.0
X5.05Y-3.1
X5.05Y-3.2
T0
M30
